<svg width="100" height="67" viewBox="0 0 100 67" fill="none" xmlns="http://www.w3.org/2000/svg">
<path d="M47.2041 65.0055C46.4333 66.0555 45.2458 66.6097 44.0416 66.6097C43.2333 66.6097 42.4208 66.3597 41.7166 65.8472C39.9708 64.5597 39.5958 62.1139 40.8749 60.368L45.3624 54.3014C46.6458 52.5639 49.0958 52.1847 50.8416 53.4722C52.5958 54.7472 52.9708 57.2014 51.6791 58.943L47.2041 65.0055ZM43.7666 53.1764C45.0499 51.4347 44.6708 48.9805 42.9291 47.693C41.1749 46.4097 38.7291 46.793 37.4416 48.5389L32.9708 54.5764C31.6833 56.3222 32.0666 58.7805 33.8124 60.0639C35.5499 61.343 38.0083 60.9722 39.2916 59.2222L43.7666 53.1764ZM35.8499 47.393C37.1374 45.6555 36.7541 43.1972 35.0041 41.9139C33.2625 40.6347 30.8083 41.0139 29.5291 42.7556L25.0166 48.843C23.7333 50.5889 24.1458 52.9889 25.8875 54.2764C27.6416 55.5597 30.0541 55.2305 31.3375 53.4847L35.8499 47.393ZM27.9416 41.6181C29.225 39.8722 28.8541 37.4222 27.0958 36.1389C25.35 34.8514 22.9 35.2306 21.6166 36.9764L17.1375 43.0222C15.8541 44.7639 16.2333 47.2222 17.9791 48.5014C19.725 49.7805 22.1791 49.4097 23.4583 47.6597L27.9416 41.6181ZM99.9998 6.45977C99.9998 6.45977 93.5207 7.71394 88.8874 8.4556C79.9457 9.88893 71.6207 6.72227 62.3832 1.94728C60.5291 0.993114 58.3957 0.00561523 56.3082 0.00561523C54.3874 0.00561523 52.5041 0.876447 50.9249 2.66811C45.2333 9.11393 41.9249 14.8139 35.1541 18.7681C31.8166 20.7181 35.7374 26.8264 42.9041 24.3139C46.5624 23.0306 50.1374 20.5847 54.1791 17.3264C57.3541 14.7639 59.2624 15.1431 62.0082 17.8889C67.1666 23.0472 84.5249 40.1847 84.5249 40.1847C90.0124 36.8014 94.6165 34.7181 99.9957 32.7181V6.45977H99.9998ZM56.1499 59.218C55.4916 61.1305 53.5749 63.3889 52.1791 65.2805C53.4166 66.2597 54.7124 66.6722 55.8541 66.6722C58.8416 66.6722 60.8041 63.8763 58.1124 61.1805L56.1499 59.218ZM83.2582 44.7889C78.7999 40.3931 63.5416 25.3431 59.0791 20.9847C58.3916 20.3139 57.3249 20.2348 56.5457 20.8014C53.8833 22.7347 47.8708 26.9889 44.2791 28.2514C37.2583 30.7097 31.3 27.3264 30.0208 22.5889C29.2208 19.6223 30.4083 16.7098 33.0499 15.1681C37.2499 12.7139 39.9541 9.43893 43.2833 5.32227C40.3874 3.07644 37.6583 2.27228 34.9874 2.27228C27.8791 2.27228 21.1666 7.96394 12.7541 7.40144C7.03332 7.02644 0 5.72227 0 5.72227V32.1097C6.14999 33.4472 10.2292 34.0431 16.3333 37.1056L18.2583 34.5056C19.775 32.4389 22.2125 31.2056 24.775 31.2056C28.4 31.2056 31.5333 33.6139 32.5291 36.9889C36.4916 36.9889 39.4749 39.4972 40.4374 42.768C43.8791 42.6389 47.2749 44.9305 48.3416 48.5389C53.2208 48.5389 56.7457 52.3722 56.5957 56.9014L61.4624 61.768C62.9916 63.3014 65.4749 63.2972 67.0082 61.768C68.5416 60.2347 68.5416 57.7514 67.0082 56.218L59.9832 49.1889C59.0666 48.2722 60.4541 46.8847 61.3707 47.8014L69.8374 56.2722C71.3707 57.8055 73.8499 57.8055 75.3832 56.2722C76.9165 54.7389 76.9165 52.2597 75.3832 50.7264L64.9624 40.3014C64.0416 39.3931 65.4332 37.9972 66.3499 38.9139L77.5999 50.168C79.1332 51.7014 81.6124 51.7014 83.1457 50.168C84.6374 48.6847 84.6499 46.3264 83.2582 44.7889Z" fill="url(#paint0_linear_42_136)"/>
<defs>
<linearGradient id="paint0_linear_42_136" x1="0" y1="33.3389" x2="99.9998" y2="33.3389" gradientUnits="userSpaceOnUse">
<stop stop-color="#5653E1"/>
<stop offset="1" stop-color="#CD52E0"/>
</linearGradient>
</defs>
</svg>
