<svg width="100" height="101" viewBox="0 0 100 101" fill="none" xmlns="http://www.w3.org/2000/svg">
<g clip-path="url(#clip0_179_738)">
<path d="M11.7428 20.5309H4.69712V18.1823H11.7428V20.5309ZM30.5313 34.6222C26.6468 34.6222 23.4856 37.7834 23.4856 41.6679C23.4856 45.5524 26.6468 48.7136 30.5313 48.7136C34.4158 48.7136 37.577 45.5524 37.577 41.6679C37.577 37.7834 34.4158 34.6222 30.5313 34.6222ZM56.3654 22.8794V62.8049H0V22.8794H13.927C15.4981 22.8794 16.9636 22.095 17.835 20.7869L21.137 15.8337H39.9255L43.2276 20.7869C44.0989 22.095 45.5644 22.8794 47.1356 22.8794H56.3654ZM11.7428 32.2737C11.7428 30.9773 10.693 29.9251 9.39424 29.9251C8.09548 29.9251 7.04568 30.9773 7.04568 32.2737C7.04568 33.5701 8.09548 34.6222 9.39424 34.6222C10.693 34.6222 11.7428 33.5701 11.7428 32.2737ZM42.2741 41.6679C42.2741 35.1835 37.0156 29.9251 30.5313 29.9251C24.0469 29.9251 18.7885 35.1835 18.7885 41.6679C18.7885 48.1523 24.0469 53.4107 30.5313 53.4107C37.0156 53.4107 42.2741 48.1523 42.2741 41.6679Z" fill="url(#paint0_linear_179_738)"/>
<path d="M44.2038 56.9392C38.0383 56.9392 33.0444 51.9425 33.0444 45.7798C33.0444 39.617 38.0411 34.6204 44.2038 34.6204C50.3666 34.6204 55.3632 39.617 55.3632 45.7798C55.3632 51.9425 50.3666 56.9392 44.2038 56.9392ZM72.1023 62.5189C74.0608 62.5189 75.9328 62.1645 77.682 61.5424V79.258C77.682 82.338 75.1823 84.8377 72.1023 84.8377H44.2038C41.1238 84.8377 38.6241 82.338 38.6241 79.258V61.5424C40.3734 62.1645 42.2454 62.5189 44.2038 62.5189C50.0179 62.5189 55.1512 59.5393 58.1531 55.0225C61.155 59.5393 66.2883 62.5189 72.1023 62.5189ZM83.2617 65.3087V76.4681L100.001 84.8377V56.9392L83.2617 65.3087ZM72.1023 34.6204C65.9396 34.6204 60.9429 39.617 60.9429 45.7798C60.9429 51.9425 65.9396 56.9392 72.1023 56.9392C78.2651 56.9392 83.2617 51.9425 83.2617 45.7798C83.2617 39.617 78.2651 34.6204 72.1023 34.6204Z" fill="url(#paint1_linear_179_738)"/>
</g>
<defs>
<linearGradient id="paint0_linear_179_738" x1="0" y1="39.3193" x2="56.3654" y2="39.3193" gradientUnits="userSpaceOnUse">
<stop stop-color="#5653E1"/>
<stop offset="1" stop-color="#CD52E0"/>
</linearGradient>
<linearGradient id="paint1_linear_179_738" x1="33.0444" y1="59.729" x2="100.001" y2="59.729" gradientUnits="userSpaceOnUse">
<stop stop-color="#5653E1"/>
<stop offset="1" stop-color="#CD52E0"/>
</linearGradient>
<clipPath id="clip0_179_738">
<rect width="100" height="100" fill="white" transform="translate(0 0.343018)"/>
</clipPath>
</defs>
</svg>
