<svg width="65" height="65" viewBox="0 0 65 65" fill="none" xmlns="http://www.w3.org/2000/svg">
<path d="M64.5 32.5C64.5 29.5545 62.1122 27.1667 59.1667 27.1667H37.8333V5.83333C37.8333 2.88781 35.4455 0.5 32.5 0.5C29.5545 0.5 27.1667 2.88781 27.1667 5.83333V27.1667H5.83333C2.88781 27.1667 0.5 29.5545 0.5 32.5C0.5 35.4455 2.88781 37.8333 5.83333 37.8333H27.1667V59.1667C27.1667 62.1122 29.5545 64.5 32.5 64.5C35.4455 64.5 37.8333 62.1122 37.8333 59.1667V37.8333H59.1667C62.1122 37.8333 64.5 35.4455 64.5 32.5Z" fill="#303030"/>
</svg>
