<svg width="101" height="101" viewBox="0 0 101 101" fill="none" xmlns="http://www.w3.org/2000/svg">
<g clip-path="url(#clip0_179_726)">
<path fill-rule="evenodd" clip-rule="evenodd" d="M61.0554 22.4522C61.0554 14.0969 54.2719 7.31323 45.9164 7.31323H15.6387C7.28345 7.31323 0.5 14.0969 0.5 22.4522V52.7299C0.5 61.0852 7.28345 67.8689 15.6387 67.8689H45.9164C54.2719 67.8689 61.0554 61.0852 61.0554 52.7299V22.4522ZM31.8826 50.5188C30.7218 51.75 29.0548 52.5229 27.2035 52.5229C25.1582 52.5206 23.241 51.5644 22.0494 49.9527C19.9574 48.8881 18.6455 46.7856 18.6445 44.4933C18.6474 41.4759 20.8791 38.9669 23.8292 38.4314C21.1245 39.0963 19.1195 41.5136 19.1166 44.3952C19.124 46.6841 20.4101 48.7864 22.4446 49.8351C21.6821 48.7961 21.2703 47.5404 21.2693 46.2518C21.2727 42.8582 24.0504 40.1087 27.4788 40.1053C28.1202 40.1053 28.7324 40.2102 29.3119 40.3897V32.9266C28.7044 32.8412 28.092 32.7969 27.4788 32.7937C27.4118 32.7937 27.3456 32.7964 27.2795 32.7987V31.3092C26.6364 31.2243 25.9887 31.1803 25.3401 31.1776C17.4083 31.1776 10.9538 37.2179 10.9538 44.6425C10.9538 49.1961 13.3864 53.2285 17.0959 55.6655C14.6121 53.1794 13.2301 49.9026 13.2325 46.4988C13.2325 45.3519 13.3864 44.2383 13.6762 43.1746C13.4212 44.1954 13.2863 45.2605 13.2863 46.3554C13.2863 49.9063 14.7075 53.1375 17.0236 55.5501C19.3748 57.1501 22.1556 58.0035 24.9995 57.9977C28.0788 57.9977 30.9277 57.0222 33.2356 55.3726C30.8829 57.3062 27.8639 58.4701 24.5764 58.4701C21.6784 58.4701 18.9919 57.5627 16.7845 56.0246C19.3592 58.7733 22.9626 60.3335 26.729 60.3298C34.2258 60.3298 40.3243 54.2804 40.3243 46.8452V31.9564C43.3243 34.093 46.9185 35.239 50.6013 35.2332V27.9067C50.2114 27.9064 49.822 27.8842 49.4352 27.8402V27.1637C47.2246 26.7063 45.217 25.5537 43.7074 23.8753C43.6438 23.8353 43.5808 23.7947 43.5186 23.7535C41.9452 21.9286 41.0773 19.5965 41.0765 17.1844H39.0976C39.1657 17.5406 39.2521 17.8915 39.3568 18.2356C39.2505 17.8915 39.1628 17.5406 39.0942 17.1844H33.8852V16.7191H39.3078C39.1915 16.1035 39.1327 15.4784 39.1316 14.852H31.7268L31.7139 44.3462C31.5905 47.6485 28.8537 50.2991 25.5009 50.2991C24.4952 50.2991 23.5044 50.055 22.6138 49.5878C23.7836 51.2066 25.6636 52.1673 27.6607 52.1673C29.2902 52.1673 30.7735 51.5414 31.8826 50.5188ZM27.1592 33.0453C27.0643 33.0482 26.9694 33.0518 26.8748 33.0563V38.4522C26.9702 38.4773 27.0649 38.5047 27.1592 38.5345V33.0453ZM38.9157 30.5992C41.7567 32.4128 45.0646 33.3795 48.4476 33.3745V32.8417C45.0353 32.6656 41.7317 31.5399 38.9157 29.5823V30.5992ZM43.894 23.5115C45.3285 25.1179 47.2307 26.2357 49.3321 26.7074L49.4342 26.7298V25.0905C47.4437 25.0926 45.4949 24.517 43.8252 23.4335L43.894 23.5115Z" fill="url(#paint0_linear_179_726)"/>
<path fill-rule="evenodd" clip-rule="evenodd" d="M100.499 47.9524C100.499 39.5972 93.7159 32.8137 85.3606 32.8137H55.0829C46.7274 32.8137 39.944 39.5972 39.944 47.9524V78.2301C39.944 86.5857 46.7274 93.3691 55.0829 93.3691H85.3606C93.7159 93.3691 100.499 86.5857 100.499 78.2301V47.9524ZM60.848 40.4909C58.4275 40.6011 56.7734 40.985 55.3289 41.547C53.8338 42.1273 52.5665 42.9061 51.301 44.1697C50.0353 45.4331 49.2586 46.7007 48.6781 48.1976C48.116 49.6432 47.7324 51.2962 47.6219 53.7169C47.5099 56.1413 47.4843 56.9164 47.4843 63.0914C47.4843 69.2664 47.5099 70.0415 47.6219 72.4659C47.7324 74.8867 48.116 76.5397 48.6781 77.9849C49.2586 79.48 50.0356 80.75 51.301 82.0131C52.5662 83.2759 53.832 84.0537 55.3289 84.6358C56.776 85.1979 58.4275 85.5817 60.848 85.6919C63.2737 85.8021 64.0475 85.8295 70.2227 85.8295C76.3977 85.8295 77.1728 85.804 79.5972 85.6919C82.018 85.5817 83.671 85.1979 85.1162 84.6358C86.6113 84.0537 87.8787 83.2765 89.1441 82.0131C90.4099 80.7495 91.185 79.48 91.7671 77.9849C92.3292 76.5397 92.7146 74.8864 92.8232 72.4659C92.9334 70.0396 92.959 69.2664 92.959 63.0914C92.959 56.9164 92.9334 56.1413 92.8232 53.7169C92.7128 51.2959 92.3292 49.6421 91.7671 48.1976C91.185 46.7025 90.4078 45.4352 89.1441 44.1697C87.8808 42.9043 86.6113 42.1273 85.1181 41.547C83.671 40.985 82.0177 40.5993 79.5991 40.4909C77.1741 40.3799 76.3993 40.353 70.2254 40.353C64.0512 40.353 63.2748 40.3789 60.849 40.4909H60.848ZM61.0365 81.6C58.8195 81.499 57.6144 81.1296 56.8137 80.8178C55.7521 80.4044 54.9946 79.9122 54.1984 79.1168C53.402 78.3216 52.909 77.565 52.4974 76.5033C52.1853 75.7029 51.8162 74.4975 51.7152 72.2806C51.605 69.8838 51.5831 69.1638 51.5831 63.0917C51.5831 57.0195 51.6069 56.3016 51.7152 53.9028C51.8162 51.6858 52.1882 50.4828 52.4974 49.6801C52.9108 48.6187 53.403 47.861 54.1984 47.0648C54.9936 46.2683 55.7502 45.7753 56.8137 45.3638C57.6142 45.0516 58.8195 44.6825 61.0365 44.5818C63.4332 44.4713 64.1532 44.4495 70.2227 44.4495C76.292 44.4495 77.0128 44.4729 79.4116 44.5821C81.6286 44.683 82.8313 45.055 83.6341 45.3643C84.6957 45.7758 85.4532 46.2699 86.2496 47.065C87.0461 47.8604 87.5373 48.6189 87.9504 49.6806C88.2625 50.481 88.6319 51.6861 88.7326 53.903C88.8428 56.3019 88.8649 57.0198 88.8649 63.0919C88.8649 69.1644 88.8428 69.8823 88.7326 72.2811C88.6316 74.4981 88.2607 75.7029 87.9504 76.5036C87.5373 77.5652 87.0448 78.3227 86.2496 79.1173C85.4542 79.9119 84.6957 80.4049 83.6341 80.818C82.8337 81.1302 81.6286 81.4995 79.4116 81.6002C77.0149 81.7104 76.2949 81.7326 70.2227 81.7326C64.1503 81.7326 63.4324 81.7104 61.0365 81.6002V81.6ZM58.5469 63.0914C58.5469 69.5398 63.7741 74.7672 70.2227 74.7672C76.6711 74.7672 81.8985 69.5398 81.8985 63.0914C81.8985 56.6428 76.6711 51.4156 70.2227 51.4156C63.7741 51.4156 58.5469 56.6425 58.5469 63.0914ZM62.6444 63.0914C62.6444 58.9056 66.0366 55.5113 70.2227 55.5113C74.4085 55.5113 77.8026 58.9056 77.8026 63.0914C77.8026 67.2772 74.4085 70.6713 70.2227 70.6713C66.0366 70.6713 62.6444 67.2772 62.6444 63.0914ZM79.6323 50.9527C79.6323 50.9529 79.6323 50.9532 79.6323 50.9537C79.6323 52.4504 80.864 53.6824 82.3607 53.6824C83.8576 53.6824 85.0894 52.4504 85.0894 50.9537C85.0894 49.4573 83.8584 48.2256 82.362 48.225H82.3607C80.8645 48.2258 79.6336 49.4565 79.6323 50.9527Z" fill="url(#paint1_linear_179_726)"/>
</g>
<defs>
<linearGradient id="paint0_linear_179_726" x1="0.5" y1="37.5911" x2="61.0554" y2="37.5911" gradientUnits="userSpaceOnUse">
<stop stop-color="#5653E1"/>
<stop offset="1" stop-color="#CD52E0"/>
</linearGradient>
<linearGradient id="paint1_linear_179_726" x1="39.944" y1="63.0914" x2="100.499" y2="63.0914" gradientUnits="userSpaceOnUse">
<stop stop-color="#5653E1"/>
<stop offset="1" stop-color="#CD52E0"/>
</linearGradient>
<clipPath id="clip0_179_726">
<rect width="100" height="100" fill="white" transform="translate(0.5 0.343018)"/>
</clipPath>
</defs>
</svg>
