<svg width="201" height="20" viewBox="0 0 201 20" fill="none" xmlns="http://www.w3.org/2000/svg">
<path fill-rule="evenodd" clip-rule="evenodd" d="M0.499756 19.83H22.1314L33.4534 0.481779H11.9073L0.499756 19.83ZM44.0153 0.481779H35.228L23.8205 19.83H32.6933L44.0153 0.481779ZM34.8057 19.83H40.7206L52.0426 0.481779H46.1277L34.8057 19.83ZM43.5931 19.83H47.9023L59.3932 0.481779H54.915L43.5931 19.83ZM66.3226 0.481779H62.6889L51.367 19.83H54.9995L66.3226 0.481779ZM200.5 5.04477V0.397705H162.984V19.7467H200.5V7.74828H178.11V12.3953H194.332V14.9299H169.236V5.04477H200.5ZM149.887 5.29781V19.7467H156.141V0.397705H146.931L134.257 9.10003L121.159 0.397705H112.288V19.7467H118.541V5.29781L130.791 14.2557H137.13L149.887 5.29781ZM107.809 19.7467L97.4159 0.397705H72.3208L60.9144 19.7467H68.0116L70.4618 15.6066H98.7676L100.964 19.7467H107.809ZM93.6977 5.04477L96.318 10.6208H72.9975L76.0389 5.04477H93.6977Z" fill="white"/>
</svg>
