<svg width="201" height="26" viewBox="0 0 201 26" fill="none" xmlns="http://www.w3.org/2000/svg">
<path d="M6.49969 0C1.32423 0 1.17275 0.3282 1.42521 1.86822H3.14195C4.7577 1.86822 5.11115 2.09543 5.11115 3.48397V20.4746C5.11115 22.873 4.4295 23.1507 0.566841 23.3527C0.44061 23.8324 0.44061 24.3878 0.566841 24.7665H14.0988C24.374 24.7665 28.6406 19.793 28.6406 12.3959C28.6406 4.69578 24.1467 0.0252461 13.7706 0.0252461L6.49969 0ZM9.63021 20.2222V2.12068H13.3414C20.2588 2.12068 23.8438 6.16006 23.8438 13.0523C23.8438 20.8028 19.9306 22.772 13.7706 22.772C10.4128 22.7973 9.63021 22.4186 9.63021 20.2222ZM44.6214 0.252461C42.9299 0.252461 42.4502 0.833123 41.2636 3.6102L34.1442 20.4746C33.1596 22.772 32.8567 22.9992 30.0796 23.3527C29.9786 23.8324 29.9786 24.3878 30.0796 24.7665H40.38C41.2889 24.7665 41.5413 24.1858 41.2889 23.1507H38.2089C36.2397 23.1507 36.2396 22.6205 37.0475 20.4999L38.5118 16.5867H47.8024L50.0745 22.0146C50.4785 22.9487 50.0745 23.2769 46.1614 23.3779C46.0604 23.8576 46.0604 24.4383 46.1614 24.7917H57.8251C58.7592 24.7917 58.9864 24.2111 58.7592 23.176H57.9261C56.0831 23.176 55.7044 22.8478 55.3005 21.9137L46.9945 2.9538C46.4139 1.69149 46.1614 1.08558 46.0604 0.302954L44.6214 0.252461ZM43.0309 5.22595L46.944 14.5923H39.2692L43.0309 5.22595ZM62.6471 0.732138C61.1324 0.732138 60.9304 1.41378 61.1324 2.34789H62.8491C64.5153 2.34789 64.8183 2.57511 64.8183 3.86266V21.0553C64.8183 22.5196 64.1366 22.8983 61.2586 23.3527C61.1071 23.8324 61.1071 24.3878 61.2586 24.7665H72.1902C73.2757 24.7665 73.3767 24.1858 73.1243 23.1507H71.2056C69.6908 23.1507 69.3374 22.8983 69.3374 21.6359V4.54431C69.3374 3.02954 69.7918 2.34789 72.9223 2.12068C73.0233 1.76723 73.0233 1.03509 72.9223 0.706892L62.6471 0.732138ZM105.843 0.732138L97.5373 18.051L88.4992 0.732138H81.2283C79.7388 0.732138 79.5115 1.51477 79.7388 2.34789C83.2985 2.44888 83.5257 2.85281 83.3995 4.01414L81.9352 20.9291C81.8342 22.4438 81.506 23.1507 77.5423 23.3779C77.4414 23.8324 77.4414 24.312 77.5423 24.7665H89.3323C90.3421 24.7665 90.4936 24.1858 90.2412 23.1507H88.2972C84.485 23.1507 84.485 22.7973 84.586 21.3835L85.7473 5.22595L95.6943 24.8422C96.5275 24.8422 96.8052 24.615 97.4616 23.3274L106.096 5.17546L107.711 20.8533C107.888 22.6205 107.383 22.9992 104.379 23.176L102.435 23.2769C102.284 23.7314 102.284 24.2111 102.435 24.6655H115.134C116.144 24.6655 116.245 24.0848 116.144 23.0497C113.367 22.6963 112.786 22.5953 112.685 21.434L110.943 3.86266C110.842 2.82757 111.044 2.24691 114.402 2.01969C114.553 1.56526 114.553 1.08558 114.402 0.631154L105.843 0.732138ZM123.061 0.732138C121.546 0.732138 121.344 1.41378 121.546 2.34789H123.263C124.778 2.34789 125.232 2.57511 125.232 3.86266V20.3484C125.232 22.6963 124.45 23.1507 120.94 23.3779C120.814 23.8576 120.865 24.312 120.94 24.7917H138.487C138.941 22.5701 139.597 20.4746 140.355 18.3035C140.733 17.2431 140.254 16.7887 139.269 16.7887H139.143L138.133 19.0104C136.618 22.2419 136.265 22.4186 133.589 22.4186H131.291C130.282 22.4186 129.65 22.0904 129.65 20.9038V4.99874C129.65 2.65085 130.357 2.34789 134.144 2.12068C134.245 1.76723 134.245 1.03509 134.144 0.706892L123.061 0.732138ZM146.363 0.732138C144.773 0.732138 144.647 1.41378 144.773 2.34789H146.49C148.105 2.34789 148.434 2.57511 148.434 3.86266V20.4999C148.434 22.8983 147.752 23.1507 143.94 23.3779C143.788 23.8576 143.788 24.312 143.94 24.7917H163.808C164.263 22.5701 164.97 20.3736 165.677 18.3035C166.03 17.2684 165.55 16.7887 164.591 16.7887H164.465L163.455 19.0104C161.94 22.2419 161.587 22.4186 158.911 22.4186H155.831C153.382 22.4186 153.054 21.8884 153.054 20.5756V14.2388H156.841C157.775 14.2388 158.254 14.567 158.709 17.3694C158.885 17.4451 159.113 17.4956 159.34 17.4956C159.567 17.4956 159.82 17.4451 159.971 17.3694C159.87 15.0215 159.87 12.6483 159.971 10.3004C160.047 9.1896 159.643 8.93714 158.936 8.93714H158.507L158.254 10.7801C158.153 11.7142 157.926 12.0677 156.841 12.0677H153.054V2.82757H158.81C160.779 2.82757 161.536 3.40823 162.142 5.60465L162.622 7.2204C162.723 7.2204 162.799 7.2204 162.874 7.2204C163.834 7.2204 164.187 6.61449 164.036 5.5794C163.783 4.03938 163.581 2.34789 163.455 0.732138H146.363ZM172.14 0.605908C170.675 0.706892 170.423 1.38854 170.675 2.32265H172.392C173.856 2.32265 174.387 2.54986 174.387 3.96365V20.6009C174.387 22.7973 173.654 23.1507 170.524 23.3779C170.423 23.8576 170.448 24.3878 170.524 24.7917H181.859C182.895 24.7917 183.021 24.2111 182.895 23.176H181.052C179.183 23.176 178.855 22.8225 178.855 21.7874V16.4857H181.279C183.475 16.4857 183.551 16.612 184.435 18.2277C185.369 19.894 186.656 21.333 187.868 22.3681C190.519 24.6655 192.715 25.3976 196.073 25.3976C199.885 25.3976 200.794 24.4635 200.466 23.2012C197.335 23.2012 195.77 22.873 191.024 19.0608C189.66 17.95 186.959 15.4759 186.959 15.4759C189.938 14.2136 191.832 11.7647 191.832 8.76041C191.832 3.83741 188.019 0.555415 181.102 0.555415C176.078 0.555415 173.907 0.555415 172.19 0.706892L172.14 0.605908ZM178.906 2.6256H180.143C184.207 2.6256 187.085 4.14037 187.085 8.98763C187.085 13.8349 184.207 14.4156 180.648 14.4156H178.931L178.906 2.6256Z" fill="white"/>
</svg>
