<svg
  width="24"
  height="24"
  viewBox="0 0 24 24"
  fill="none"
  xmlns="http://www.w3.org/2000/svg"
>
  <g clip-path="url(#clip0_61_893)">
    <path
      d="M7.98709 11.9797C7.98709 9.7744 9.7744 7.98613 11.9797 7.98613C14.185 7.98613 15.9733 9.7744 15.9733 11.9797C15.9733 14.185 14.185 15.9733 11.9797 15.9733C9.7744 15.9733 7.98709 14.185 7.98709 11.9797ZM5.82825 11.9797C5.82825 15.3771 8.58228 18.1312 11.9797 18.1312C15.3771 18.1312 18.1312 15.3771 18.1312 11.9797C18.1312 8.58228 15.3771 5.82824 11.9797 5.82824C8.58228 5.82824 5.82834 8.58209 5.82834 11.9797H5.82825ZM16.9373 5.58436C16.9373 5.58455 16.9373 5.58474 16.9373 5.58493C16.9373 6.37361 17.5862 7.02256 18.3748 7.02256C19.1635 7.02256 19.8123 6.37361 19.8123 5.58493C19.8123 4.79654 19.1637 4.1477 18.3754 4.14738H18.3748C17.5865 4.14774 16.9379 4.7961 16.9373 5.58436ZM7.13986 21.731C5.97189 21.6778 5.33711 21.4833 4.91523 21.3189C4.35592 21.1011 3.95686 20.8418 3.53728 20.4228C3.1177 20.0039 2.85797 19.6051 2.64119 19.0459C2.47673 18.6241 2.28218 17.9892 2.22909 16.8212C2.17101 15.5584 2.15942 15.1791 2.15942 11.9799C2.15942 8.78074 2.17197 8.4025 2.22909 7.13871C2.28228 5.97074 2.47827 5.33692 2.64119 4.91398C2.85893 4.35468 3.11827 3.95561 3.53728 3.53603C3.95628 3.11645 4.35496 2.85673 4.91523 2.63995C5.33692 2.47549 5.97189 2.28093 7.13986 2.22784C8.4027 2.16976 8.78199 2.15817 11.9797 2.15817C15.1774 2.15817 15.5571 2.17053 16.821 2.22804C17.989 2.28122 18.6227 2.47721 19.0457 2.64014C19.6049 2.85692 20.0041 3.11722 20.4236 3.53622C20.8432 3.95522 21.102 4.35487 21.3197 4.91418C21.4842 5.33586 21.6787 5.97084 21.7318 7.1389C21.7898 8.4027 21.8014 8.78093 21.8014 11.9801C21.8014 15.1793 21.7898 15.5575 21.7318 16.8214C21.6786 17.9894 21.4831 18.6241 21.3197 19.0461C21.102 19.6053 20.8426 20.0045 20.4236 20.423C20.0046 20.8416 19.6049 21.1014 19.0457 21.3191C18.6239 21.4836 17.989 21.6781 16.821 21.7312C15.5582 21.7893 15.1789 21.8009 11.9797 21.8009C8.78055 21.8009 8.40232 21.7893 7.13986 21.7312V21.731ZM7.04068 0.0725486C5.76538 0.130621 4.89395 0.33284 4.1329 0.628981C3.34522 0.934801 2.67752 1.34508 2.01078 2.01077C1.34402 2.67646 0.934804 3.34425 0.628985 4.13291C0.332843 4.89444 0.130625 5.76538 0.0725521 7.04077C0.0135118 8.31808 0 8.72641 0 11.9797C0 15.233 0.0135118 15.6414 0.0725521 16.9188C0.130625 18.1941 0.332843 19.065 0.628985 19.8265C0.934804 20.6142 1.34412 21.2833 2.01078 21.9486C2.67742 22.6141 3.34426 23.0237 4.1329 23.3305C4.89539 23.6266 5.76538 23.8288 7.04068 23.8869C8.31875 23.945 8.72641 23.9594 11.9797 23.9594C15.233 23.9594 15.6413 23.9459 16.9188 23.8869C18.1941 23.8288 19.065 23.6266 19.8265 23.3305C20.6142 23.0237 21.282 22.6144 21.9486 21.9486C22.6154 21.283 23.0237 20.6142 23.3305 19.8265C23.6266 19.065 23.8298 18.194 23.8869 16.9188C23.945 15.6405 23.9585 15.233 23.9585 11.9797C23.9585 8.72641 23.945 8.31808 23.8869 7.04077C23.8288 5.76528 23.6266 4.89396 23.3305 4.13291C23.0237 3.34521 22.6144 2.67751 21.9486 2.01077C21.283 1.34403 20.6142 0.934801 19.8275 0.628981C19.065 0.33284 18.194 0.129663 16.9197 0.0725486C15.6421 0.014179 15.234 -3.8147e-06 11.9812 -3.8147e-06C8.72833 -3.8147e-06 8.31923 0.0135082 7.04116 0.0725486"
      fill="#E2E2E2"
    />
  </g>
  <defs>
    <clipPath id="clip0_61_893">
      <rect width="24" height="24" fill="white" />
    </clipPath>
  </defs>
</svg>
