<svg width="40" height="40" viewBox="0 0 40 40" fill="none" xmlns="http://www.w3.org/2000/svg">
<circle cx="20" cy="20" r="19.5" stroke="#E2E2E2"/>
<g clip-path="url(#clip0_61_910)">
<path d="M15.9871 19.9797C15.9871 17.7744 17.7744 15.9861 19.9797 15.9861C22.185 15.9861 23.9733 17.7744 23.9733 19.9797C23.9733 22.185 22.185 23.9733 19.9797 23.9733C17.7744 23.9733 15.9871 22.185 15.9871 19.9797ZM13.8282 19.9797C13.8282 23.3771 16.5823 26.1312 19.9797 26.1312C23.3771 26.1312 26.1312 23.3771 26.1312 19.9797C26.1312 16.5823 23.3771 13.8282 19.9797 13.8282C16.5823 13.8282 13.8283 16.5821 13.8283 19.9797H13.8282ZM24.9373 13.5844C24.9373 13.5845 24.9373 13.5847 24.9373 13.5849C24.9373 14.3736 25.5862 15.0226 26.3748 15.0226C27.1635 15.0226 27.8123 14.3736 27.8123 13.5849C27.8123 12.7965 27.1637 12.1477 26.3754 12.1474H26.3748C25.5865 12.1477 24.9379 12.7961 24.9373 13.5844ZM15.1399 29.731C13.9719 29.6778 13.3371 29.4833 12.9152 29.3189C12.3559 29.1011 11.9569 28.8418 11.5373 28.4228C11.1177 28.0039 10.858 27.6051 10.6412 27.0459C10.4767 26.6241 10.2822 25.9892 10.2291 24.8212C10.171 23.5584 10.1594 23.1791 10.1594 19.9799C10.1594 16.7807 10.172 16.4025 10.2291 15.1387C10.2823 13.9707 10.4783 13.3369 10.6412 12.914C10.8589 12.3547 11.1183 11.9556 11.5373 11.536C11.9563 11.1164 12.355 10.8567 12.9152 10.6399C13.3369 10.4755 13.9719 10.2809 15.1399 10.2278C16.4027 10.1698 16.782 10.1582 19.9797 10.1582C23.1774 10.1582 23.5571 10.1705 24.821 10.228C25.989 10.2812 26.6227 10.4772 27.0457 10.6401C27.6049 10.8569 28.0041 11.1172 28.4236 11.5362C28.8432 11.9552 29.102 12.3549 29.3197 12.9142C29.4842 13.3359 29.6787 13.9708 29.7318 15.1389C29.7898 16.4027 29.8014 16.7809 29.8014 19.9801C29.8014 23.1793 29.7898 23.5575 29.7318 24.8214C29.6786 25.9894 29.4831 26.6241 29.3197 27.0461C29.102 27.6053 28.8426 28.0045 28.4236 28.423C28.0046 28.8416 27.6049 29.1014 27.0457 29.3191C26.6239 29.4836 25.989 29.6781 24.821 29.7312C23.5582 29.7893 23.1789 29.8009 19.9797 29.8009C16.7806 29.8009 16.4023 29.7893 15.1399 29.7312V29.731ZM15.0407 8.07255C13.7654 8.13062 12.8939 8.33284 12.1329 8.62898C11.3452 8.9348 10.6775 9.34508 10.0108 10.0108C9.34402 10.6765 8.9348 11.3443 8.62898 12.1329C8.33284 12.8944 8.13062 13.7654 8.07255 15.0408C8.01351 16.3181 8 16.7264 8 19.9797C8 23.233 8.01351 23.6414 8.07255 24.9188C8.13062 26.1941 8.33284 27.065 8.62898 27.8265C8.9348 28.6142 9.34412 29.2833 10.0108 29.9486C10.6774 30.6141 11.3443 31.0237 12.1329 31.3305C12.8954 31.6266 13.7654 31.8288 15.0407 31.8869C16.3188 31.945 16.7264 31.9594 19.9797 31.9594C23.233 31.9594 23.6413 31.9459 24.9188 31.8869C26.1941 31.8288 27.065 31.6266 27.8265 31.3305C28.6142 31.0237 29.282 30.6144 29.9486 29.9486C30.6154 29.283 31.0237 28.6142 31.3305 27.8265C31.6266 27.065 31.8298 26.194 31.8869 24.9188C31.945 23.6405 31.9585 23.233 31.9585 19.9797C31.9585 16.7264 31.945 16.3181 31.8869 15.0408C31.8288 13.7653 31.6266 12.894 31.3305 12.1329C31.0237 11.3452 30.6144 10.6775 29.9486 10.0108C29.283 9.34403 28.6142 8.9348 27.8275 8.62898C27.065 8.33284 26.194 8.12966 24.9197 8.07255C23.6421 8.01418 23.234 8 19.9812 8C16.7283 8 16.3192 8.01351 15.0412 8.07255" fill="#E2E2E2"/>
</g>
<defs>
<clipPath id="clip0_61_910">
<rect width="24" height="24" fill="white" transform="translate(8 8)"/>
</clipPath>
</defs>
</svg>
