<svg width="40" height="40" viewBox="0 0 40 40" fill="none" xmlns="http://www.w3.org/2000/svg">
<circle cx="20" cy="20" r="19.5" stroke="url(#paint0_linear_304_281)"/>
<path d="M9 11.4421C9 10.7342 9.24775 10.1502 9.74324 9.69015C10.2387 9.23004 10.8829 9 11.6757 9C12.4543 9 13.0843 9.2265 13.5656 9.67954C14.0611 10.1467 14.3089 10.7555 14.3089 11.5058C14.3089 12.1853 14.0682 12.7516 13.5869 13.2046C13.0914 13.6718 12.4402 13.9054 11.6332 13.9054H11.612C10.8333 13.9054 10.2034 13.6718 9.72201 13.2046C9.24066 12.7375 9 12.1499 9 11.4421ZM9.27606 30.0232V15.8378H13.9903V30.0232H9.27606ZM16.6023 30.0232H21.3166V22.1023C21.3166 21.6068 21.3732 21.2246 21.4865 20.9556C21.6847 20.4742 21.9855 20.0672 22.389 19.7346C22.7925 19.4019 23.2986 19.2355 23.9073 19.2355C25.4929 19.2355 26.2857 20.3044 26.2857 22.4421V30.0232H31V21.89C31 19.7947 30.5045 18.2056 29.5135 17.1226C28.5225 16.0396 27.213 15.4981 25.5849 15.4981C23.7587 15.4981 22.3359 16.2838 21.3166 17.8552V17.8977H21.2954L21.3166 17.8552V15.8378H16.6023C16.6306 16.2909 16.6448 17.6995 16.6448 20.0637C16.6448 22.4279 16.6306 25.7477 16.6023 30.0232Z" fill="url(#paint1_linear_304_281)"/>
<defs>
<linearGradient id="paint0_linear_304_281" x1="0" y1="20" x2="40" y2="20" gradientUnits="userSpaceOnUse">
<stop stop-color="#5653E1"/>
<stop offset="1" stop-color="#CD52E0"/>
</linearGradient>
<linearGradient id="paint1_linear_304_281" x1="9" y1="19.5116" x2="31" y2="19.5116" gradientUnits="userSpaceOnUse">
<stop stop-color="#5653E1"/>
<stop offset="1" stop-color="#CD52E0"/>
</linearGradient>
</defs>
</svg>
