<svg width="201" height="11" viewBox="0 0 201 11" fill="none" xmlns="http://www.w3.org/2000/svg">
<path fill-rule="evenodd" clip-rule="evenodd" d="M50.3935 8.0694H32.534C32.2608 8.0694 31.99 7.88866 31.7169 7.52541V3.97976C31.7169 3.43576 31.9865 3.16288 32.534 3.16288H50.3935C50.4823 3.25589 50.6154 3.30064 50.7997 3.30064C51.0729 3.4849 51.2095 3.7104 51.2095 3.98064V7.52715L50.3935 8.0694ZM22.4468 4.52815H3.4993V3.16376H22.4468L23.2685 3.71127L22.4468 4.52815ZM79.5599 4.25439C79.4704 4.43953 79.3335 4.52815 79.1527 4.52815H60.3441V3.16376H79.1519C79.3326 3.16376 79.559 3.34889 79.8319 3.71127C79.7397 3.89202 79.6476 4.07277 79.5599 4.25439ZM25.9917 2.89089C25.9917 1.53001 25.3077 0.845632 23.9478 0.845632H0.500732V10.5262H3.4993V6.70941H23.9478C25.3089 6.70941 25.9917 5.98378 25.9917 4.52815V2.89089ZM53.7984 2.89089C53.7984 1.53001 53.1145 0.845632 51.7546 0.845632H30.8986C29.5342 0.845632 28.8537 1.53001 28.8537 2.89089V8.20715C28.8537 9.75228 29.5342 10.5262 30.8986 10.5262H51.7546C53.1145 10.5262 53.7984 9.75228 53.7984 8.20715V2.89089ZM82.8318 7.66316C82.8318 7.1174 82.558 6.5734 82.0149 6.02589C82.558 5.75565 82.8318 5.2564 82.8318 4.52815V2.89089C82.8318 1.53001 82.1026 0.845632 80.6505 0.845632H57.4786V10.5262H60.3452V6.70941H78.8799C78.9685 6.79715 79.1492 6.95683 79.4239 7.18672C79.6967 7.41572 79.8345 7.61929 79.8345 7.79653V10.5253H82.8326V7.66316H82.8318ZM111.459 6.70941C111.459 5.2564 110.73 4.52815 109.279 4.52815H89.6458C89.465 4.52815 89.1913 4.25878 88.8289 3.71127L89.1684 3.37083C89.2922 3.23922 89.465 3.16464 89.6458 3.16376H111.458V0.845632H88.1489C86.7836 0.845632 86.1036 1.53001 86.1036 2.89089V4.52815C86.1036 5.98466 86.7836 6.70941 88.1489 6.70941H107.776C108.321 6.70941 108.594 6.98315 108.594 7.52715C108.505 7.61928 108.389 7.73422 108.253 7.86671C108.129 7.99745 107.956 8.07204 107.776 8.07116H86.1045V10.5262H109.279C110.73 10.5262 111.459 9.75228 111.459 8.20715V6.70941ZM140.081 8.0694H118.411L118 7.52541V3.97976C118 3.7104 118.135 3.43576 118.411 3.16288H140.081V0.844754H117.184C115.727 0.844754 115.001 1.52826 115.001 2.88913V8.20627C115.001 9.7514 115.727 10.5253 117.184 10.5253H140.081V8.0694ZM168.163 0.844754H165.437V4.52727H145.805V0.844754H142.944V10.5253H145.805V6.70853H165.437V10.5253H168.163V0.844754ZM197.06 8.0694H174.571V6.70941H197.06V4.52815H174.571V3.16376H197.06V0.845632H171.574V10.5262H197.06V8.0694ZM199.15 0.829834C198.39 0.829834 197.8 1.42034 197.8 2.17842C197.8 2.93651 198.39 3.52789 199.15 3.52789C199.912 3.52789 200.499 2.93651 200.499 2.17842C200.499 1.42034 199.912 0.829834 199.15 0.829834ZM199.15 1.02198C199.804 1.02198 200.291 1.5344 200.291 2.1793C200.291 2.82596 199.804 3.33574 199.15 3.33574C198.497 3.33574 198.012 2.82596 198.012 2.1793C198.012 1.53265 198.497 1.02198 199.15 1.02198ZM198.855 2.26617H199.177L199.616 2.95669H199.84L199.375 2.26617C199.587 2.22844 199.769 2.1056 199.769 1.83009C199.769 1.5502 199.611 1.3984 199.26 1.3984H198.663V2.95669H198.857V2.26617H198.855ZM198.855 2.10209V1.56247H199.207C199.396 1.56247 199.575 1.61337 199.575 1.83097C199.575 2.09595 199.345 2.10209 199.11 2.10209H198.855Z" fill="white"/>
</svg>
