<svg width="40" height="40" viewBox="0 0 40 40" fill="none" xmlns="http://www.w3.org/2000/svg">
<circle cx="20" cy="20" r="19.5" stroke="url(#paint0_linear_304_295)"/>
<g clip-path="url(#clip0_304_295)">
<path d="M18.1154 17.5993V16.6849C17.7761 16.64 17.4343 16.6167 17.092 16.6153C12.9062 16.6153 9.5 19.8029 9.5 23.7211C9.5 26.1242 10.7837 28.2523 12.7412 29.5384C11.4305 28.2263 10.7012 26.4972 10.7025 24.7008C10.7025 20.8387 14.0114 17.6891 18.1154 17.5993Z" fill="url(#paint1_linear_304_295)"/>
<path d="M18.3165 27.6923C20.0863 27.6923 21.5293 26.2936 21.5953 24.5496L21.6014 8.98522H24.4629C24.4016 8.66038 24.3705 8.33057 24.3701 8H20.4623L20.4555 23.565C20.3903 25.3077 18.946 26.7064 17.1768 26.7064C16.646 26.7064 16.1231 26.5777 15.6531 26.3311C16.2704 27.1853 17.2625 27.6923 18.3165 27.6923ZM29.8069 14.2683V13.4031C28.7566 13.4042 27.728 13.1004 26.847 12.5286C27.6203 13.4125 28.6591 14.0229 29.8076 14.2683" fill="url(#paint2_linear_304_295)"/>
<path d="M26.7305 12.7496C25.8714 11.7791 25.3966 10.5269 25.3962 9.23083H24.3521C24.6281 10.6799 25.4888 11.9533 26.7305 12.7496ZM17.0843 20.3477C15.2751 20.3503 13.8092 21.8007 13.8074 23.5908C13.8112 24.7987 14.49 25.9082 15.5637 26.4616C15.1612 25.9133 14.9439 25.2507 14.9434 24.5705C14.9452 22.7798 16.4111 21.3286 18.2203 21.3268C18.5588 21.3268 18.8818 21.3823 19.1877 21.477V17.5385C18.8672 17.4934 18.544 17.47 18.2203 17.4683C18.1637 17.4683 18.1077 17.4721 18.0517 17.4727V20.4979C17.7386 20.3993 17.4125 20.3487 17.0843 20.3477Z" fill="url(#paint3_linear_304_295)"/>
<path d="M29.2865 14.7692V17.7748C27.3428 17.7777 25.4461 17.1727 23.863 16.0449V23.9015C23.863 27.8258 20.6446 31.0184 16.6889 31.0184C15.1597 31.0184 13.7418 30.5397 12.5769 29.728C13.9356 31.1785 15.8374 32.0019 17.8249 31.9999C21.7812 31.9999 24.9997 28.8073 24.9997 24.8838V17.0264C26.5827 18.1539 28.4794 18.7587 30.423 18.7557V14.8892C30.041 14.8891 29.6601 14.8489 29.2865 14.7692Z" fill="url(#paint4_linear_304_295)"/>
<path d="M24.256 23.6431V15.7736C25.8851 16.9061 27.8234 17.5111 29.8075 17.5065V14.4973C28.6408 14.2558 27.5813 13.6476 26.7846 12.7619C25.5096 11.9576 24.6296 10.6819 24.3501 9.23083H21.4289L21.4228 24.7477C21.3551 26.4857 19.8812 27.88 18.0751 27.88C16.9957 27.8788 15.984 27.3742 15.3551 26.5238C14.2511 25.9619 13.5588 24.8524 13.5582 23.6425C13.56 21.8457 15.0597 20.3902 16.912 20.3878C17.2566 20.3878 17.5877 20.4432 17.9015 20.5386V17.5028C13.9317 17.5933 10.7305 20.752 10.7305 24.6252C10.7305 26.4992 11.4806 28.2043 12.7028 29.4775C13.9437 30.322 15.4111 30.7723 16.912 30.7693C20.9612 30.7693 24.256 27.5724 24.256 23.6431Z" fill="url(#paint5_linear_304_295)"/>
</g>
<defs>
<linearGradient id="paint0_linear_304_295" x1="0" y1="20" x2="40" y2="20" gradientUnits="userSpaceOnUse">
<stop stop-color="#5653E1"/>
<stop offset="1" stop-color="#CD52E0"/>
</linearGradient>
<linearGradient id="paint1_linear_304_295" x1="9.5" y1="23.0768" x2="18.1154" y2="23.0768" gradientUnits="userSpaceOnUse">
<stop stop-color="#5653E1"/>
<stop offset="1" stop-color="#CD52E0"/>
</linearGradient>
<linearGradient id="paint2_linear_304_295" x1="15.6531" y1="17.8461" x2="29.8076" y2="17.8461" gradientUnits="userSpaceOnUse">
<stop stop-color="#5653E1"/>
<stop offset="1" stop-color="#CD52E0"/>
</linearGradient>
<linearGradient id="paint3_linear_304_295" x1="13.8074" y1="17.8462" x2="26.7305" y2="17.8462" gradientUnits="userSpaceOnUse">
<stop stop-color="#5653E1"/>
<stop offset="1" stop-color="#CD52E0"/>
</linearGradient>
<linearGradient id="paint4_linear_304_295" x1="12.5769" y1="23.3846" x2="30.423" y2="23.3846" gradientUnits="userSpaceOnUse">
<stop stop-color="#5653E1"/>
<stop offset="1" stop-color="#CD52E0"/>
</linearGradient>
<linearGradient id="paint5_linear_304_295" x1="10.7305" y1="20.0001" x2="29.8075" y2="20.0001" gradientUnits="userSpaceOnUse">
<stop stop-color="#5653E1"/>
<stop offset="1" stop-color="#CD52E0"/>
</linearGradient>
<clipPath id="clip0_304_295">
<rect width="24" height="24" fill="white" transform="translate(8 8)"/>
</clipPath>
</defs>
</svg>
