<svg
  width="24"
  height="24"
  viewBox="0 0 24 24"
  fill="none"
  xmlns="http://www.w3.org/2000/svg"
>
  <g clip-path="url(#clip0_61_898)">
    <path
      d="M10.1154 9.59933V8.68486C9.77608 8.64001 9.43426 8.61675 9.092 8.6153C4.90615 8.6153 1.5 11.8029 1.5 15.7211C1.5 18.1242 2.78369 20.2523 4.74123 21.5384C3.43046 20.2263 2.70123 18.4972 2.70246 16.7008C2.70246 12.8387 6.01138 9.68914 10.1154 9.59933Z"
      fill="#E2E2E2"
    />
    <path
      d="M10.3165 19.6923C12.0863 19.6923 13.5293 18.2936 13.5953 16.5496L13.6014 0.985225H16.4629C16.4016 0.660385 16.3705 0.330566 16.3701 0H12.4623L12.4555 15.565C12.3903 17.3077 10.946 18.7064 9.17678 18.7064C8.646 18.7064 8.12309 18.5777 7.65308 18.3311C8.27045 19.1853 9.26251 19.6923 10.3165 19.6923ZM21.8069 6.2683V5.40307C20.7566 5.40424 19.728 5.10041 18.847 4.52862C19.6203 5.41245 20.6591 6.02288 21.8076 6.2683"
      fill="#E2E2E2"
    />
    <path
      d="M18.7305 4.7496C17.8714 3.7791 17.3966 2.52692 17.3962 1.23083H16.3521C16.6281 2.67988 17.4888 3.95325 18.7305 4.7496ZM9.0843 12.3477C7.27507 12.3503 5.80922 13.8007 5.80737 15.5908C5.81122 16.7987 6.48999 17.9082 7.56368 18.4615C7.16123 17.9133 6.94389 17.2506 6.94338 16.5705C6.94522 14.7798 8.41107 13.3286 10.2203 13.3268C10.5588 13.3268 10.8818 13.3823 11.1877 13.477V9.53848C10.8672 9.49339 10.544 9.47001 10.2203 9.46832C10.1637 9.46832 10.1077 9.47206 10.0517 9.47266V12.4979C9.73864 12.3993 9.41249 12.3487 9.0843 12.3477Z"
      fill="#E2E2E2"
    />
    <path
      d="M21.2865 6.76923V9.77481C19.3428 9.7777 17.4461 9.17267 15.863 8.04495V15.9015C15.863 19.8258 12.6446 23.0184 8.68891 23.0184C7.15968 23.0184 5.74183 22.5397 4.5769 21.728C5.93565 23.1785 7.83737 24.0019 9.82491 23.9999C13.7812 23.9999 16.9997 20.8073 16.9997 16.8838V9.02645C18.5827 10.1539 20.4794 10.7587 22.423 10.7557V6.88923C22.041 6.88911 21.6601 6.8489 21.2865 6.76923Z"
      fill="#E2E2E2"
    />
    <path
      d="M16.256 15.6431V7.7736C17.8851 8.90609 19.8234 9.51112 21.8075 9.50653V6.49729C20.6408 6.25584 19.5813 5.64762 18.7846 4.76191C17.5096 3.9576 16.6296 2.68191 16.3501 1.23083H13.4289L13.4228 16.7477C13.3551 18.4857 11.8812 19.88 10.0751 19.88C8.9957 19.8788 7.98401 19.3742 7.35509 18.5238C6.25109 17.9619 5.55877 16.8524 5.55816 15.6425C5.56001 13.8457 7.0597 12.3902 8.91201 12.3877C9.25662 12.3877 9.5877 12.4432 9.90154 12.5386V9.5028C5.9317 9.59333 2.73047 12.752 2.73047 16.6252C2.73047 18.4992 3.48063 20.2043 4.70278 21.4775C5.94366 22.322 7.41109 22.7723 8.91201 22.7693C12.9612 22.7693 16.256 19.5724 16.256 15.6431Z"
      fill="#E2E2E2"
    />
  </g>
  <defs>
    <clipPath id="clip0_61_898">
      <rect width="24" height="24" fill="white" />
    </clipPath>
  </defs>
</svg>
