<?xml version="1.0" standalone="no"?>
<!DOCTYPE svg PUBLIC "-//W3C//DTD SVG 20010904//EN"
 "http://www.w3.org/TR/2001/REC-SVG-20010904/DTD/svg10.dtd">
<svg version="1.0" xmlns="http://www.w3.org/2000/svg"
 width="800.000000pt" height="800.000000pt" viewBox="0 0 800.000000 800.000000"
 preserveAspectRatio="xMidYMid meet">
<metadata>
Created by potrace 1.14, written by Peter Selinger 2001-2017
</metadata>
<g transform="translate(0.000000,800.000000) scale(0.100000,-0.100000)"
fill="#000000" stroke="none">
<path d="M9 6328 c38 -99 105 -269 117 -295 8 -17 14 -34 14 -38 0 -4 7 -23
16 -43 17 -39 20 -46 54 -132 11 -30 25 -64 29 -75 35 -83 61 -151 61 -158 0
-4 11 -30 25 -59 14 -28 25 -58 25 -65 0 -8 7 -25 16 -38 9 -14 13 -25 9 -25
-4 0 -3 -6 2 -12 5 -7 20 -40 33 -73 12 -33 31 -79 41 -102 11 -24 19 -45 19
-47 0 -5 123 -321 145 -371 13 -30 138 -346 202 -510 19 -49 39 -100 44 -112
5 -13 14 -35 20 -50 6 -16 17 -41 24 -58 7 -16 27 -68 45 -115 18 -47 38 -98
45 -115 7 -16 49 -122 93 -235 45 -113 86 -218 93 -235 7 -16 13 -32 14 -35 1
-3 7 -18 13 -33 7 -16 12 -31 12 -35 1 -4 9 -25 20 -47 11 -22 19 -43 20 -46
0 -4 8 -24 17 -45 9 -22 18 -45 19 -52 1 -7 12 -31 23 -52 11 -22 19 -40 16
-40 -4 0 9 -33 40 -105 7 -16 41 -102 75 -190 34 -88 68 -173 75 -190 7 -16
29 -70 48 -120 46 -116 171 -434 182 -460 5 -11 9 -22 10 -25 1 -3 5 -14 10
-25 4 -11 25 -63 46 -115 28 -73 39 -90 44 -75 8 22 21 54 54 128 11 26 21 51
21 56 0 5 8 26 17 47 9 22 17 41 18 44 1 3 6 16 12 30 6 14 25 63 43 110 18
47 38 99 46 115 7 17 38 95 69 175 31 80 63 159 71 177 8 17 14 34 14 38 0 4
7 21 15 38 8 18 35 86 60 152 26 66 53 134 60 150 7 17 18 46 25 65 7 19 21
54 31 77 11 24 19 45 19 47 0 2 8 21 17 42 9 22 17 41 18 44 1 9 118 305 138
350 11 24 20 49 22 55 3 14 14 42 35 90 10 22 36 90 60 150 23 61 48 124 55
140 7 17 25 59 38 95 14 36 31 79 37 95 7 17 14 35 16 40 1 6 34 89 72 185 38
96 95 240 126 320 32 80 61 154 66 165 43 97 87 215 82 219 -3 3 -1 6 5 6 5 0
10 6 10 13 0 11 43 121 78 202 8 17 28 68 46 115 18 47 40 104 51 127 10 23
18 45 18 48 0 4 6 21 14 38 14 33 27 68 28 77 0 3 5 14 11 25 6 11 12 22 12
25 0 6 20 57 45 115 23 55 33 78 36 90 1 6 10 28 20 50 10 22 18 45 19 50 0 6
10 30 22 55 11 25 26 62 33 83 7 22 18 51 26 65 8 15 14 33 14 40 0 9 -378 12
-1855 12 l-1855 0 9 -22z"/>
<path d="M4280 6330 c-18 -33 -230 -575 -230 -587 0 -7 -4 -13 -10 -13 -5 0
-10 -6 -10 -14 0 -11 -82 -229 -110 -291 -5 -11 -24 -56 -41 -100 -17 -44 -36
-91 -42 -105 -5 -14 -11 -29 -12 -35 -1 -5 -8 -26 -17 -45 -17 -39 -25 -61
-26 -73 -1 -4 -8 -20 -16 -35 -8 -15 -51 -119 -95 -232 -44 -113 -85 -218 -92
-235 -7 -16 -13 -32 -14 -35 -2 -6 -19 -50 -38 -95 -6 -16 -12 -32 -13 -35 0
-3 -5 -16 -11 -30 -12 -27 -145 -363 -297 -750 -53 -135 -107 -270 -120 -300
-27 -64 -50 -123 -52 -130 0 -3 -6 -18 -13 -35 -6 -16 -43 -111 -82 -210 -39
-99 -75 -189 -79 -200 -16 -37 -68 -168 -195 -490 -69 -176 -132 -334 -140
-352 -8 -17 -15 -36 -15 -42 0 -6 -4 -19 -10 -29 -15 -28 -70 -166 -70 -177 0
-3 836 -4 1857 -3 l1856 3 58 145 c31 80 61 156 67 170 6 14 32 79 58 145 25
66 51 126 56 132 6 7 8 13 4 13 -3 0 5 25 19 55 13 30 21 55 18 55 -3 0 -1 6
5 13 5 6 22 44 37 82 14 39 37 96 51 128 13 32 24 65 24 73 0 8 4 14 8 14 5 0
9 6 9 13 0 6 14 46 31 87 17 41 43 107 57 145 15 39 30 75 34 80 4 6 15 35 25
65 10 30 23 59 27 64 5 6 9 16 9 23 0 7 9 32 19 56 20 45 34 79 35 87 1 3 13
34 28 70 15 36 53 130 84 210 31 80 61 156 67 170 6 14 11 27 12 30 5 15 18
48 26 65 4 11 53 133 107 270 54 138 102 259 107 270 4 11 9 25 10 31 2 6 10
27 18 45 24 55 125 312 132 339 4 14 11 30 15 35 5 6 20 42 34 80 15 39 30 79
36 90 26 56 57 144 52 149 -3 3 0 6 6 6 7 0 12 6 12 13 0 10 45 130 80 212 4
11 22 56 40 100 17 44 35 89 40 100 7 18 20 50 25 65 1 3 5 14 10 25 4 11 35
88 67 170 32 83 63 159 68 170 10 20 32 75 35 85 11 41 19 63 53 140 21 47 36
92 33 100 0 3 -834 5 -1852 5 -1643 0 -1852 -1 -1859 -15z"/>
</g>
</svg>
